<svg xmlns="http://www.w3.org/2000/svg" width="665" height="67" fill="none">
  <path fill-rule="evenodd" d="M338.12 0v12.81h-13.88V0h13.88Zm-13.61 18.81h13.08V65.3h-13.08V18.81ZM24.45.72h14.06L63.05 65.3H47.91l-4.84-13.53H19.42L14.58 65.3H0L24.45.72Zm14.33 39.23L31.26 18.9l-7.52 21.05h15.04ZM61 48.9h.02C61.476 59.194 70.154 66 81.71 66c11.56 0 19.26-6.9 19.26-14.87 0-9.94-6.54-12.99-14.24-14.42l-6.81-1.34c-2.78-.54-4.66-1.79-4.66-3.85 0-2.33 2.33-3.67 5.37-3.67 3.22 0 6.98 1.71 7.52 5.29h11.91c-1.17-9.59-9.32-15.05-19.44-15.05-10.93 0-17.47 6.28-17.47 13.44 0 9.76 7.07 13.17 14.06 14.6l6.81 1.34c2.87.63 4.48 1.97 4.48 3.94 0 2.6-2.87 4.21-6.81 4.21-5.02 0-8.51-3.5-8.78-6.72H61.02v-.01l-.02.01Zm61.17-19.25h10.39V18.81h-10.39V5.28H109v13.54h-7.52v10.84H109v20.06c0 11.01 7.53 16.3 17.56 16.3 2.51 0 4.48-.27 6-.63v-11.2c-1.25.36-2.78.63-4.12.63-3.58 0-6.27-2.42-6.27-6.63V29.65Zm40.04.71c-6.09 0-12.18 4.75-12.18 18.09v16.84h-13.08V18.81h13.08v8.06c2.15-5.02 8.24-8.78 13.79-8.78 1.07 0 1.97.09 2.69.18v12.54c-1.25-.27-2.78-.45-4.3-.45Zm27.85-12.27c-14.06 0-24.09 10.21-24.09 23.92 0 13.79 10.12 24 24.09 24s24.18-10.2 24.18-24-10.12-23.92-24.18-23.92Zm0 11.2c6.36 0 10.84 5.2 10.84 12.72 0 7.52-4.21 12.81-10.84 12.81s-10.84-5.37-10.84-12.81 4.48-12.72 10.84-12.72ZM219.27.72h25.61c11.73 0 20.51 5.73 20.51 16.57 0 5.91-3.49 10.66-7.61 12.72 6 2.42 10.75 7.7 10.75 16.03 0 12.45-9.4 19.26-23.02 19.26h-26.24V.72Zm32.06 17.91c0-4.21-2.78-6.72-8.78-6.72h-9.4v13.35h9.67c5.82 0 8.51-2.51 8.51-6.63Zm3.05 26.6c0-5.2-3.4-8.06-10.93-8.06h-10.3v15.94h10.3c7.52 0 10.93-2.69 10.93-7.88Zm50.06 20.06h13.08V18.8h-13.08v20.42c0 9.68-3.58 15.14-10.21 15.14-4.93 0-8.06-3.49-8.06-8.6V18.8H273v30.37c0 10.21 6.9 16.84 17.11 16.84 6.27 0 11.46-2.87 14.33-7.08v6.36ZM357.74 0h-13.08v65.29h13.08V0Zm5.01 42.005c.002-14.507 8.692-23.915 22.03-23.915 5.55 0 10.12 2.06 12.72 5.29V0h13.08v65.29H397.5v-4.75c-2.24 3.13-6.9 5.46-12.54 5.46-13.608 0-22.208-9.488-22.21-23.995Zm35.47.005c0-7.61-4.48-12.72-11.11-12.72-6.63 0-11.02 5.11-11.02 12.72s4.39 12.81 11.02 12.81 11.11-5.11 11.11-12.81ZM447.75 0c-17.1 0-32.33 11.19-32.33 32.96 0 21.85 14.86 33.05 32.33 33.05 15.05 0 27.41-7.79 29.83-24.18h-15.05c-1.34 7.61-7.17 12-14.87 12-10.12 0-18.09-7.34-18.09-20.87 0-13.53 8.06-20.87 18.09-20.87 7.53 0 13.62 4.92 14.96 11.82h14.78C475.7 8.6 463.69 0 447.75 0Zm34.13 0h13.08v65.29h-13.08V0Zm51.14 65.29h13.08V18.8h-13.08v20.42c0 9.68-3.58 15.14-10.21 15.14-4.93 0-8.06-3.49-8.06-8.6V18.8h-13.17v30.37c0 10.21 6.9 16.84 17.11 16.84 6.27 0 11.46-2.87 14.33-7.08v6.36Zm33.14-4.74v4.75h-13.08V0h13.08v23.38c2.6-3.22 7.17-5.29 12.72-5.29 13.35 0 22.03 9.41 22.03 23.92 0 14.51-8.6 24-22.21 24-5.64 0-10.3-2.33-12.54-5.46Zm21.41-18.54c0-7.61-4.39-12.72-11.02-12.72s-11.11 5.11-11.11 12.72 4.48 12.81 11.11 12.81c6.63 0 11.02-5.2 11.02-12.81ZM598.4 7.88h9.22v25.08h8.42V7.88h9.23V.72H598.4v7.16ZM637.46.72h-9.11v32.24h7.7V16.3l7.25 16.66h5.91l7.34-16.66v16.66h7.61V.72h-9.05l-8.87 20.42L637.46.72Z" clip-rule="evenodd"/>
  <style>
    path { fill: #000; }
    @media (prefers-color-scheme: dark) {
        path { fill: #FFF; }
    }
  </style>
</svg>