<svg width="317" height="326" viewBox="0 0 317 326" fill="none" xmlns="http://www.w3.org/2000/svg">
<g clip-path="url(#clip0_1_30)">
<path d="M314.25 124.66C313.09 122.71 311.63 121.19 309.93 119.42C306.8 116.16 302.06 111.23 300.9 105.69C300.88 105.59 300.85 105.44 300.82 105.35C300.8 105.26 300.78 105.17 300.75 105.07C299.43 100.06 301.29 95.38 302.8 91.6C303.6 89.6 304.35 87.71 304.66 85.45C305.39 80.21 303.17 75.25 298.87 72.43C296.59 70.9 293.89 70.09 291.04 70.09C288.94 70.09 286.81 70.53 284.71 71.41C281.73 72.66 278.58 74.83 275.69 77.72C274.49 76.23 273.25 74.77 271.96 73.34C239.6 37.32 193.66 24.48 161.46 24.48C153.57 24.48 146.51 25.25 140.48 26.77C133.97 28.41 127.52 29.31 122.33 29.31C120.53 29.31 119.13 29.2 118.08 29.06C119.71 23.56 118.87 17.78 115.66 12.91C110.33 4.82 99.1801 0 85.8301 0C68.4301 0 52.0301 8.03 40.8501 22.03C24.9301 41.97 20.1701 64.8 27.2401 86.77C22.6501 93.27 14.1301 105.37 15.8401 125.18C16.3801 131.44 17.2601 136.8 18.3101 141.35C12.8901 144.78 8.33007 149.57 5.09007 155.5C-0.209932 165.2 -1.41993 176.38 1.69007 186.99C4.02007 194.94 8.57007 201.86 14.7901 207.06C14.2601 255.9 31.7101 291.7 65.9401 311.32C82.3601 320.73 101.08 325.7 120.08 325.7C133.23 325.7 146.12 323.36 158.37 318.74C172.84 313.28 186.56 305.18 198.92 295.15C199.7 295.55 200.5 295.92 201.33 296.26L201.89 296.5C206.9 298.53 212.2 299.57 217.64 299.57C223.08 299.57 228.78 298.46 233.96 296.28C244.14 291.98 252.04 283.97 256.2 273.72C259.1 266.56 259.93 258.92 258.71 251.49C273.68 238.04 296.45 199.14 299.24 155.92C299.48 152.17 299.56 148.47 299.49 144.82C300.37 144.96 301.21 145.04 301.97 145.04C302.04 145.04 302.2 145.04 302.27 145.04C306.78 144.95 310.81 142.98 313.4 139.6C316.84 135.27 317.18 129.58 314.26 124.67L314.25 124.66Z" fill="white"/>
<path d="M50.2917 199.187C64.6305 193.934 72.3333 178.972 67.4964 165.769C62.6595 152.566 47.1146 146.121 32.7759 151.374C18.4371 156.627 10.7343 171.589 15.5711 184.792C20.408 197.995 35.9529 204.44 50.2917 199.187Z" fill="#FCDDCC"/>
<path d="M16.0754 169.396C15.9461 169.947 15.9138 170.451 16.5601 170.876C20.6804 173.882 22.4417 175.582 26.2065 178.997C26.3519 179.296 32.2657 158.426 37 147C27.4183 150.809 18.2083 159.371 16.0754 169.396Z" fill="#FDBB95"/>
<path d="M50.25 204.22C50.44 204.17 50.62 204.11 50.8 204.05C63.16 200.42 67.97 186.03 66.34 185.22C64.71 184.41 59.37 194.66 48.82 197.76C42.59 199.59 35.84 199.03 30.15 195.92C24.65 192.92 20.65 187.95 18.89 181.94C17.13 175.93 17.81 169.59 20.82 164.09C26.87 153.02 41.58 147.19 53.44 153.06C55.07 153.87 58.29 155.69 58.73 154.75C59.14 153.87 56.21 151.25 54.58 150.45C39.53 143.01 22.79 146.76 15.04 160.93C11.19 167.97 10.32 176.09 12.57 183.79C14.83 191.49 19.95 197.85 26.99 201.7C34.08 205.57 42.52 206.48 50.24 204.21L50.25 204.22Z" fill="black"/>
<path d="M48.47 172.21C49.42 172.5 49.7 172.59 50.01 172.4L50.25 172.25L50.28 172.1C50.37 171.92 50.22 171.32 50.17 171.23C49.64 169.13 48.61 167.03 46.79 165.3C40.53 159.22 30.25 162.76 30.4 163.82C30.21 164.8 37.36 163.48 42.26 167.62C42.02 167.58 41.78 167.55 41.54 167.53C37.47 167.14 34.28 168.63 32.34 171.84C30.4 174.98 30.55 178.47 32.77 181.93C33.84 183.61 35.34 185.13 36.76 186.26C38.42 187.58 39.99 188.38 40.72 188.29C40.95 188.26 41.15 188.15 41.27 187.98L41.39 187.87V187.61C41.43 187.25 41.23 187.05 40.48 186.3C38.39 184.19 33.49 179.26 36.73 174.5" fill="black"/>
<path d="M27.49 185.68C34.39 124.26 91.89 72.07 164.21 82.3C255.53 94.4 257.37 144.93 242.1 208.77C231.54 252.92 195.4 292.67 154.38 308.14C127.25 318.37 96.75 315.91 71.59 301.49C32.11 278.86 22.03 234.35 27.49 185.68Z" fill="#FEDBC7"/>
<path d="M57.5 119.5C57.5 119.5 60.8075 128.115 72 132.5C76.3165 134.191 81.5559 128.079 85.5 130C91.5 122.5 77.5 117.5 65.5 112C58.079 121.5 59.7344 113.861 57.5 119.5Z" fill="#FDBB95"/>
<path d="M199.11 275.724C198.29 275.154 197.85 274.214 197.11 273.564C195.53 272.184 194.26 270.514 192.87 268.964C192.53 268.584 192.26 268.654 192.08 268.914C185.53 275.994 173.44 285.59 165.29 290.71C130.8 312.4 94.82 306.23 60.23 290.06C60.06 290.06 59.85 289.95 59.76 290.2C59.7 290.37 59.81 290.47 59.93 290.59C64.47 294.96 69.62 298.62 75.02 301.84C84.85 307.6 95.76 311.56 107.01 313.36C109.1 313.45 110.99 314.16 113.09 314.13C115.22 314.29 117.36 314.33 119.5 314.43C119.57 314.43 119.65 314.43 119.72 314.45C120.56 314.58 121.4 314.76 122.26 314.76C137.2 314.69 152.08 311.16 165.41 304.3C172.72 300.64 179.83 296.37 186.33 291.34C189.79 288.47 197.99 282.264 200.96 278.864C201.38 278.364 201.61 278.014 201 277.414C200.39 276.824 199.81 276.204 199.11 275.714V275.724Z" fill="#FDBB95"/>
<path d="M222.84 220.29C221.11 217 217.11 219.02 214.49 217.25C211.46 214.91 215.19 213.06 217.08 211.76C230.94 201.7 238.89 190.43 238.25 172.8C238.21 152.64 228.86 131.61 210.67 121.79C210.33 121.59 205.47 118.81 206.58 120.6C227.34 143.54 225.48 176.97 215.98 204.49C214.73 207.66 213.62 210.88 212.22 213.99C211.57 215.23 211.02 216.57 211.26 218.05C211.95 221.93 213.05 225.92 212.13 229.86C211.98 230.51 212.09 230.68 212.77 230.63C215.4 230.39 218.04 230.37 220.67 230.56C225.15 231.19 224.39 222.78 222.83 220.28L222.84 220.29Z" fill="#FDBB95"/>
<path d="M27.49 185.68C34.39 124.26 91.89 72.07 164.21 82.3C255.53 94.4 257.37 144.93 242.1 208.77C231.54 252.92 195.4 292.67 154.38 308.14C127.25 318.37 96.75 315.91 71.59 301.49C32.11 278.86 22.03 234.35 27.49 185.68Z" stroke="#231F20" stroke-width="6.52" stroke-miterlimit="10"/>
<path d="M263.52 80.91C226.26 39.43 168.6 31.38 143.24 37.76C123.3 42.78 100.11 42.47 106.82 26.87C113.53 11.28 72.41 0.690001 49.71 29.11C27.01 57.53 37.78 82.9 39.4 87.08C41.02 91.26 25.12 100.72 27.14 124.21C29.17 147.7 36.28 155.93 36.28 155.93C42.78 140.12 45.45 124.7 58.29 120.74C50.42 111.5 47.79 99.05 48.86 99.22C49.86 98.91 55.21 110.95 65.05 117.8C81.43 129.2 104.82 132.44 126.99 121.8C169.55 101.37 218.45 111.6 233.02 149.11C247.59 186.62 226.44 206.02 216.96 211.49C207.48 216.96 215.32 217.85 219.74 218.61C224.16 219.37 226.07 226.51 221.34 231.83C216.96 236.75 210.94 242.33 203.89 245.79C196.85 249.25 229.39 261.77 250.62 243.52C271.86 225.27 315.85 139.16 263.53 80.91H263.52Z" fill="black"/>
<path d="M260.55 195.49C260.55 195.49 281.04 151.53 262.23 114.67C244.85 77.18 195.33 61.48 195.33 61.48C195.47 56.11 243.99 66.12 265.95 111.7C288.28 157.11 264.95 198.87 260.56 195.5L260.55 195.49Z" fill="white"/>
<path d="M292.6 81.88C294.09 82.8 293.43 84.46 292.26 87.41C290.49 91.87 287.51 99.34 289.79 107.97V108.03C291.64 116.75 297.97 123.34 301.75 127.28C304.34 129.98 305.59 131.28 304.45 132.62C304.05 133.17 303.27 133.68 302.03 133.7C297.22 133.79 280.04 125.2 276.48 109.81C276.41 109.52 276.34 109.23 276.29 108.94C273.37 94.7 284 83.99 289.07 81.88C291 81.08 292.11 81.54 292.6 81.88Z" fill="black"/>
<path d="M242.637 270.164C248.772 257.512 242.607 241.854 228.867 235.191C215.127 228.528 199.014 233.383 192.879 246.035C186.743 258.687 192.909 274.345 206.649 281.008C220.389 287.671 236.502 282.816 242.637 270.164Z" fill="#FCDDCC"/>
<path d="M224.25 248.81C222.86 248.76 218.32 248.99 218.04 249.92C218.08 250.16 218.45 250.18 218.7 250.19C222.4 250.54 226.44 253.03 227.24 256.82C228.32 262.33 224.02 267.15 219.44 269.56C217.75 270.44 220.53 271.72 221.02 272.55C223.39 276.79 230.74 268.16 231.98 265.76C235.28 260.67 234.73 252.97 230.63 248.64C228.36 248.73 226.09 248.61 224.24 248.81H224.25Z" fill="#FDBB95"/>
<path d="M206.16 285.99C205.98 285.92 205.81 285.84 205.63 285.77C193.7 280.92 190.35 266.12 192.05 265.48C193.75 264.84 198.03 275.57 208.22 279.71C214.24 282.15 221 282.28 226.98 279.75C232.75 277.31 237.23 272.77 239.58 266.97C241.94 261.16 241.89 254.79 239.45 249.02C234.54 237.4 220.49 230.13 208.1 234.78C206.4 235.42 203.01 236.91 202.67 235.93C202.35 235.01 205.53 232.7 207.23 232.06C222.95 226.17 239.23 231.57 245.52 246.45C248.64 253.84 248.7 262.01 245.68 269.44C242.66 276.88 236.93 282.69 229.54 285.82C222.1 288.96 213.61 289.02 206.15 285.99H206.16Z" fill="black"/>
<path d="M209.56 253.18C210.3 251.14 211.53 249.16 213.52 247.62C220.36 242.2 230.23 246.75 229.97 247.79C230.06 248.79 223.07 246.75 217.79 250.38C218.03 250.37 218.28 250.36 218.52 250.36C222.61 250.38 225.63 252.18 227.24 255.57C228.85 258.89 228.36 262.34 225.8 265.56C224.56 267.12 222.93 268.48 221.39 269.47C219.61 270.62 217.96 271.25 217.25 271.09C217.02 271.04 216.84 270.91 216.73 270.73L216.62 270.61V270.35C216.65 269.99 216.87 269.81 217.68 269.14C219.97 267.25 225.34 262.84 222.59 257.77C220.37 252.51 213.9 253.79 211.13 254.33C210.16 254.52 209.86 254.58 209.58 254.37L209.36 254.19L209.34 254.04C209.27 253.85 209.47 253.27 209.54 253.19L209.56 253.18Z" fill="black"/>
<path d="M104.91 111.35C104.06 112.11 97.78 105.65 88.4 105.01C79.06 104 71.9 109.26 71.17 108.37C70.11 107.69 77.32 98.95 88.77 100.01C100.23 100.97 106.05 110.87 104.9 111.36L104.91 111.35Z" fill="black"/>
<path d="M194.56 137.97C193.36 138.49 189.02 129.51 179.17 125.66C169.49 121.42 159.8 124.59 159.36 123.39C158.48 122.31 169.53 115.47 181.46 120.47C193.43 125.37 195.98 137.83 194.57 137.96L194.56 137.97Z" fill="black"/>
<path d="M133.88 202.82C133.28 208.74 133.43 214.68 134.88 220.6C135.69 223.9 137.83 223.37 142.55 224.5C147.01 225.57 149.3 227.23 151.89 224.98C160.09 217.87 164.61 209.11 168.27 200C173.36 187.31 176.36 174.31 174.79 160.65C174.43 157.51 173.69 154.42 171.96 151.5C169.13 146.71 164.93 145.52 159.36 148.06C154.15 150.43 151.03 154.29 148.36 158.4C139.38 172.2 135.95 187.35 133.89 202.82H133.88Z" fill="white" stroke="#010101" stroke-width="5.28" stroke-miterlimit="10"/>
<path d="M54.08 183.23C53.52 188.72 53.67 194.22 55.01 199.7C55.76 202.76 57.66 202.67 62.03 203.72C66.16 204.71 68.36 205.84 70.76 203.76C78.36 197.18 82.55 189.06 85.94 180.61C90.66 168.85 93.43 156.81 91.98 144.15C91.65 141.24 90.96 138.38 89.36 135.67C86.74 131.23 82.85 130.13 77.68 132.48C72.85 134.68 69.96 138.26 67.49 142.06C59.17 154.85 55.99 168.88 54.09 183.22L54.08 183.23Z" fill="white" stroke="#010101" stroke-width="5.28" stroke-miterlimit="10"/>
<path d="M148.06 203.12C147.53 208.42 147.63 213.72 148.8 219.01C149.45 221.96 150.53 225.04 154.44 226.02C154.44 226.02 155.51 222.56 157.67 220.54C164.52 214.14 166.65 205.99 169.74 197.82C174.04 186.45 175.39 176.63 174.15 164.42C173.87 161.61 174.4 158.8 172.98 156.19C170.65 151.92 174.17 151.7 169.52 154.01C165.18 156.16 162.57 159.63 160.32 163.32C152.78 175.71 149.85 189.28 148.06 203.12Z" fill="black"/>
<path d="M67.34 184.15C66.85 189.06 66.95 193.97 68.09 198.86C68.72 201.59 68.22 203.89 71.98 204.81C71.98 204.81 75.84 198.45 77.91 196.58C84.46 190.67 84.54 186.28 87.48 178.73C91.57 168.21 94.8 160.54 93.59 149.23C93.31 146.63 92.23 143.11 90.86 140.69C88.61 136.73 92.24 136.62 87.79 138.73C83.63 140.71 81.14 143.92 79 147.32C71.81 158.77 69.04 171.32 67.36 184.14L67.34 184.15Z" fill="black"/>
<path d="M106.079 213.449C108.158 208.873 104.153 202.578 97.1344 199.388C90.1154 196.198 82.7397 197.322 80.6603 201.897C78.5809 206.472 82.5853 212.767 89.6044 215.957C96.6234 219.147 103.999 218.024 106.079 213.449Z" fill="#FEDBC7"/>
<path d="M88.1 217.11C88.19 217.15 88.27 217.2 88.36 217.24C94.14 220.2 100.25 218.32 99.87 217.63C99.49 216.94 94.41 217.69 89.48 215.17C86.56 213.68 84.16 211.47 82.92 208.99C81.72 206.59 81.67 204.2 82.79 202.25C83.9 200.3 86.05 199.03 88.82 198.67C94.41 197.95 101.74 201.11 104.51 206.14C104.89 206.83 105.58 208.25 106.02 208.16C106.44 208.08 106.1 206.57 105.72 205.88C102.2 199.51 94.71 195.22 87.55 196.15C83.99 196.61 81.25 198.24 79.82 200.73C78.39 203.23 78.45 206.29 79.99 209.36C81.54 212.45 84.48 215.26 88.1 217.11Z" fill="black"/>
<path d="M55.35 237.41C57.28 217.28 82.09 233.17 108.4 236.88C134.71 240.59 163.12 232.23 162.04 254.43C159.81 310.74 49.26 300.94 55.35 237.41Z" fill="black"/>
<mask id="mask0_1_30" style="mask-type:luminance" maskUnits="userSpaceOnUse" x="55" y="227" width="108" height="65">
<path d="M55.35 237.41C57.28 217.28 82.09 233.17 108.4 236.88C134.71 240.59 163.12 232.23 162.04 254.43C159.81 310.74 49.26 300.94 55.35 237.41Z" fill="white"/>
</mask>
<g mask="url(#mask0_1_30)">
<path d="M145.56 247.42C137.49 263.76 72.08 250.81 70.25 236.78C68.42 222.75 87.56 207.03 119.74 212.28C151.92 217.54 161.81 214.55 145.56 247.42Z" fill="white"/>
<path d="M161.55 287.93C161.55 287.93 155.66 275.52 142.77 269.34C133.76 265.02 121.34 263.74 105.11 271.83C105.11 271.83 102.7 267.57 109.64 264.35C94.36 259.13 58.24 262.9 77.99 281.48C86.95 289.91 154.7 303.26 161.55 287.92V287.93Z" fill="#FE2601"/>
</g>
<path d="M55.35 237.41C57.28 217.28 82.09 233.17 108.4 236.88C134.71 240.59 163.12 232.23 162.04 254.43C159.81 310.74 49.26 300.94 55.35 237.41Z" stroke="black" stroke-width="3.69" stroke-linecap="round" stroke-linejoin="round"/>
</g>
<defs>
<clipPath id="clip0_1_30">
<rect width="317" height="326" fill="white"/>
</clipPath>
</defs>
</svg>
