<svg xmlns="http://www.w3.org/2000/svg" id="Layer_1" data-name="Layer 1" version="1.1" viewBox="0 0 31.1 32"><defs><clipPath id="clippath"><path d="M0 0h31.1v32H0z" style="stroke-width:0;fill:none"/></clipPath><style>.cls-1{stroke:#010101;stroke-width:.5px;stroke-miterlimit:10}.cls-1,.cls-3{fill:#fff}.cls-6{fill:#fedbc7}.cls-10,.cls-3,.cls-6,.cls-8,.cls-9{stroke-width:0}.cls-8{fill:#fdbb95}.cls-9{fill:#000}.cls-10{fill:#fcddcc}</style><mask id="mask" width="10.5" height="8.2" x="5.4" y="20.7" maskUnits="userSpaceOnUse"><path id="mask0_1_30" d="M5.4 23.3c.2-2 2.6-.4 5.2 0s5.4-.5 5.3 1.7c-.2 5.5-11.1 4.6-10.5-1.7Z" class="cls-3" data-name="mask0 1 30"/></mask></defs><g style="clip-path:url(#clippath)"><path d="M30.8 12.2c-.1-.2-.3-.3-.4-.5-.3-.3-.8-.8-.9-1.3-.1-.5 0-1 .2-1.3 0-.2.2-.4.2-.6 0-.5-.1-1-.6-1.3-.2-.2-.5-.2-.8-.2s-.4 0-.6.1c-.3.1-.6.3-.9.6-.1-.1-.2-.3-.4-.4-3.2-3.5-7.7-4.8-10.8-4.8s-1.5 0-2.1.2c-.6.2-1.3.2-1.8.2h-.4c.2-.5 0-1.1-.2-1.6C10.8.5 9.7 0 8.4 0S5.1.8 4 2.2c-1.6 2-2 4.2-1.3 6.4-.5.6-1.3 1.8-1.1 3.8 0 .6.1 1.1.2 1.6-.5.3-1 .8-1.3 1.4-.5 1-.6 2-.3 3.1.2.8.7 1.5 1.3 2 0 4.8 1.7 8.3 5 10.2 1.6.9 3.4 1.4 5.3 1.4s2.6-.2 3.8-.7c1.4-.5 2.8-1.3 4-2.3 0 0 .2 0 .2.1.5.2 1 .3 1.5.3s1.1-.1 1.6-.3c1-.4 1.8-1.2 2.2-2.2.3-.7.4-1.5.2-2.2 1.5-1.3 3.7-5.1 4-9.4v-1.1h.2c.4 0 .8-.2 1.1-.5.3-.4.4-1 0-1.5Z" class="cls-3"/><path d="M4.9 19.6c1.4-.5 2.2-2 1.7-3.3s-2-1.9-3.4-1.4-2.2 2-1.7 3.3c.5 1.3 2 1.9 3.4 1.4Z" class="cls-10"/><path d="M1.6 16.6v.1c.4.3.6.5.9.8 0 0 .6-2 1.1-3.1-.9.4-1.8 1.2-2.1 2.2Z" class="cls-8"/><path d="M4.9 20c1.2-.4 1.7-1.8 1.5-1.8-.2 0-.7.9-1.7 1.2-.6.2-1.3.1-1.8-.2-.5-.3-.9-.8-1.1-1.4-.2-.6-.1-1.2.2-1.8.6-1.1 2-1.7 3.2-1.1.2 0 .5.3.5.2 0 0-.2-.3-.4-.4-1.5-.7-3.1-.4-3.9 1-.4.7-.5 1.5-.2 2.2.2.8.7 1.4 1.4 1.8.7.4 1.5.5 2.3.2Z" class="cls-9"/><path d="M4.8 16.9H5c0-.2-.2-.4-.3-.6-.6-.6-1.6-.2-1.6-.1 0 0 .7 0 1.2.4-.4 0-.7.1-.9.4-.2.3-.2.7 0 1 .1.2.3.3.4.4.2.1.3.2.4.2v-.2c-.2-.2-.7-.7-.4-1.2" class="cls-9"/><path d="M2.7 18.2C3.4 12.2 9 7 16.1 8.1c9 1.2 9.1 6.1 7.6 12.4-1 4.3-4.6 8.2-8.6 9.8-2.7 1-5.7.8-8.1-.7-3.9-2.2-4.9-6.6-4.3-11.4Z" class="cls-6"/><path d="M5.6 11.7s.3.8 1.4 1.3c.4.2.9-.4 1.3-.2.6-.7-.8-1.2-2-1.8-.7.9-.6.2-.8.7ZM19.5 27.1l-.2-.2c-.2-.1-.3-.3-.4-.5-.6.7-1.8 1.6-2.6 2.1-3.4 2.1-6.9 1.5-10.3 0 .4.4 1 .8 1.5 1.1 1 .6 2 1 3.1 1.1H12c1.5 0 2.9-.4 4.2-1 .7-.4 1.4-.8 2.1-1.3.3-.3 1.1-.9 1.4-1.2v-.1l-.2-.2ZM21.9 21.6c-.2-.3-.6-.1-.8-.3-.3-.2 0-.4.3-.5 1.4-1 2.1-2.1 2.1-3.8 0-2-.9-4-2.7-5 0 0-.5-.3-.4-.1 2 2.3 1.9 5.5.9 8.2-.1.3-.2.6-.4.9 0 .1-.1.3 0 .4 0 .4.2.8 0 1.2h.8c.4 0 .4-.8.2-1Z" class="cls-8"/><path d="M2.7 18.2C3.4 12.2 9 7 16.1 8.1c9 1.2 9.1 6.1 7.6 12.4-1 4.3-4.6 8.2-8.6 9.8-2.7 1-5.7.8-8.1-.7-3.9-2.2-4.9-6.6-4.3-11.4Z" style="fill:none;stroke:#231f20;stroke-width:.6px;stroke-miterlimit:10"/><path d="M25.9 7.9C22.2 3.8 16.6 3 14.1 3.7c-2 .5-4.2.5-3.6-1.1.7-1.5-3.4-2.6-5.6.2-2.2 2.8-1.2 5.3-1 5.7.2.4-1.4 1.3-1.2 3.6.2 2.3.9 3.1.9 3.1.6-1.6.9-3.1 2.2-3.5-.8-.9-1-2.1-.9-2.1 0 0 .6 1.2 1.6 1.8 1.6 1.1 3.9 1.4 6.1.4 4.2-2 9-1 10.4 2.7 1.4 3.7-.6 5.6-1.6 6.1-.9.5-.2.6.3.7s.6.8.2 1.3c-.4.5-1 1-1.7 1.4-.7.3 2.5 1.6 4.6-.2 2.1-1.8 6.4-10.2 1.3-16Z" class="cls-9"/><path d="M25.6 19.2s2-4.3.2-7.9c-1.7-3.7-6.6-5.2-6.6-5.2 0-.5 4.8.5 6.9 4.9 2.2 4.5 0 8.6-.5 8.2Z" class="cls-3"/><path d="M28.7 8c.1 0 0 .3 0 .5-.2.4-.5 1.2-.2 2 .2.9.8 1.5 1.2 1.9.3.3.4.4.3.5 0 0-.1.1-.2.1-.5 0-2.2-.8-2.5-2.3-.3-1.4.8-2.4 1.3-2.7h.3Z" class="cls-9"/><path d="M23.8 26.5c.6-1.2 0-2.8-1.4-3.4-1.3-.7-2.9-.2-3.5 1.1-.6 1.2 0 2.8 1.4 3.4s2.9.2 3.5-1.1Z" class="cls-10"/><path d="M22 24.4c-.1 0-.6 0-.6.1.4 0 .8.3.8.7.1.5-.3 1-.8 1.3-.2 0 .1.2.2.3.2.4 1-.4 1.1-.7.3-.5.3-1.3-.1-1.7H22Z" class="cls-8"/><path d="M20.2 28.1c-1.2-.5-1.5-1.9-1.3-2 .2 0 .6 1 1.6 1.4.6.2 1.3.3 1.8 0 .6-.2 1-.7 1.2-1.3.2-.6.2-1.2 0-1.8-.5-1.1-1.9-1.9-3.1-1.4-.2 0-.5.2-.5.1l.4-.4c1.5-.6 3.1 0 3.8 1.4.3.7.3 1.5 0 2.3-.3.7-.9 1.3-1.6 1.6-.7.3-1.6.3-2.3 0Z" class="cls-9"/><path d="M20.6 24.9c0-.2.2-.4.4-.5.7-.5 1.6 0 1.6 0s-.7-.1-1.2.3c.4 0 .7.2.9.5.2.3.1.7-.1 1-.1.2-.3.3-.4.4-.2.1-.3.2-.4.2l.1-.2c.2-.2.8-.6.5-1.1-.2-.5-.9-.4-1.1-.3h-.2ZM10.3 10.9s-.7-.6-1.6-.6c-.9 0-1.6.4-1.7.3-.1 0 .6-.9 1.7-.8 1.1 0 1.7 1.1 1.6 1.1ZM19.1 13.5c-.1 0-.5-.8-1.5-1.2-1-.4-1.9-.1-1.9-.2s1-.8 2.2-.3c1.2.5 1.4 1.7 1.3 1.7Z" class="cls-9"/><path d="M13.1 19.9v1.7c0 .3.3.3.8.4.4.1.7.3.9 0 .8-.7 1.2-1.6 1.6-2.5.5-1.2.8-2.5.6-3.9 0-.3-.1-.6-.3-.9-.3-.5-.7-.6-1.2-.3-.5.2-.8.6-1.1 1-.9 1.4-1.2 2.8-1.4 4.4ZM5.3 18v1.6c0 .3.3.3.7.4.4 0 .6.2.9 0 .7-.6 1.2-1.4 1.5-2.3.5-1.2.7-2.3.6-3.6 0-.3-.1-.6-.3-.8-.3-.4-.6-.5-1.1-.3-.5.2-.8.6-1 .9-.8 1.3-1.1 2.6-1.3 4Z" class="cls-1"/><path d="M14.5 19.9v1.6c0 .3.2.6.6.7 0 0 .1-.3.3-.5.7-.6.9-1.4 1.2-2.2.4-1.1.6-2.1.4-3.3 0-.3 0-.6-.1-.8-.2-.4.1-.4-.3-.2s-.7.6-.9.9c-.7 1.2-1 2.5-1.2 3.9ZM6.6 18.1v1.4c0 .3 0 .5.4.6 0 0 .4-.6.6-.8.6-.6.7-1 .9-1.8.4-1 .7-1.8.6-2.9 0-.3-.1-.6-.3-.8-.2-.4.1-.4-.3-.2s-.7.5-.9.8c-.7 1.1-1 2.4-1.1 3.6Z" class="cls-9"/><path d="M10.4 21c.2-.4-.2-1.1-.9-1.4-.7-.3-1.4-.2-1.6.2s.2 1.1.9 1.4c.7.3 1.4.2 1.6-.2Z" class="cls-6"/><path d="M8.6 21.3c.6.3 1.2.1 1.1 0 0 0-.5 0-1-.2-.3-.1-.5-.4-.6-.6-.1-.2-.1-.5 0-.7.1-.2.3-.3.6-.4.5 0 1.3.2 1.5.7l.1.2v-.2c-.3-.6-1.1-1-1.8-1-.3 0-.6.2-.8.4-.1.2-.1.5 0 .8.2.3.4.6.8.8ZM5.4 23.3c.2-2 2.6-.4 5.2 0s5.4-.5 5.3 1.7c-.2 5.5-11.1 4.6-10.5-1.7Z" class="cls-9"/><g style="mask:url(#mask)"><path d="M14.3 24.3c-.8 1.6-7.2.3-7.4-1s1.7-2.9 4.9-2.4 4.1.2 2.5 3.4Z" class="cls-3"/><path d="M15.9 28.3s-.6-1.2-1.8-1.8c-.9-.4-2.1-.5-3.7.2 0 0-.2-.4.4-.7-1.5-.5-5-.1-3.1 1.7.9.8 7.5 2.1 8.2.6Z" style="fill:#fe2601;stroke-width:0"/></g><path d="M5.4 23.3c.2-2 2.6-.4 5.2 0s5.4-.5 5.3 1.7c-.2 5.5-11.1 4.6-10.5-1.7Z" style="stroke:#000;stroke-linecap:round;stroke-linejoin:round;stroke-width:.4px;fill:none"/></g></svg>